<svg version="1.0" xmlns="http://www.w3.org/2000/svg"
 width="620.000000pt" height="180.000000pt" viewBox="0 0 620.000000 180.000000"
 preserveAspectRatio="xMidYMid meet">

<g transform="translate(0.000000,180.000000) scale(0.100000,-0.100000)"
fill="#000000" stroke="none">
<path d="M260 1781 c-44 -23 -69 -57 -76 -101 -22 -136 171 -180 246 -58 24
40 26 95 4 126 -36 51 -113 66 -174 33z"/>
<path d="M684 1772 c9 -28 9 -129 1 -175 l-7 -37 569 0 c606 0 625 -1 691 -49
48 -34 74 -98 73 -184 0 -103 -29 -177 -95 -242 -64 -64 -120 -85 -229 -85
l-79 0 7 43 c6 33 51 244 80 375 5 22 5 22 -125 22 -71 0 -130 -2 -130 -3 0
-2 -31 -151 -70 -331 -38 -180 -70 -330 -70 -332 0 -2 107 -4 238 -4 270 0
323 8 436 68 215 112 350 400 292 618 -29 111 -118 224 -214 273 -99 50 -117
52 -766 58 l-608 6 6 -21z"/>
<path d="M832 1485 c-18 -8 -50 -28 -70 -45 -20 -16 -39 -30 -42 -30 -3 0 -4
16 -2 35 l4 35 -42 0 c-38 0 -48 -5 -90 -49 -26 -27 -66 -59 -89 -70 -22 -12
-41 -25 -41 -28 0 -9 -109 -521 -116 -545 -5 -16 5 -18 104 -18 76 0 112 4
119 13 5 6 24 84 42 171 59 288 79 326 167 326 59 0 84 -25 84 -82 0 -24 -18
-128 -39 -233 l-39 -190 106 -3 c76 -2 109 1 118 10 7 7 32 103 55 213 32 148
44 222 44 287 0 80 -2 89 -30 130 -57 80 -157 110 -243 73z"/>
<path d="M3368 1483 c-9 -10 -51 -95 -94 -188 -87 -188 -100 -212 -108 -204
-3 2 -15 83 -26 179 -12 96 -23 185 -26 198 -4 21 -8 22 -119 22 -85 0 -115
-3 -115 -12 0 -7 27 -161 59 -343 53 -292 58 -333 46 -360 -28 -66 -99 -99
-164 -77 -35 12 -34 14 -51 -84 -16 -91 -10 -119 31 -133 45 -15 139 -14 187
3 102 36 142 91 362 501 94 176 192 357 216 402 25 45 49 85 53 88 5 3 12 -7
15 -22 7 -30 96 -651 96 -665 0 -14 234 -10 251 5 14 11 380 652 395 691 5 14
-7 16 -109 16 -64 0 -123 -3 -132 -6 -9 -4 -61 -97 -117 -208 -55 -110 -102
-203 -104 -205 -9 -10 -12 11 -23 149 -6 80 -14 173 -17 208 l-6 62 -243 0
c-218 0 -243 -2 -257 -17z"/>
<path d="M4583 1485 c-64 -20 -124 -58 -175 -113 -190 -203 -142 -518 93 -599
64 -22 160 -27 231 -13 61 12 151 50 163 69 3 5 -9 40 -27 76 -27 54 -36 65
-53 61 -11 -3 -53 -10 -92 -17 -64 -10 -78 -10 -118 5 -30 12 -51 28 -60 46
-32 61 -37 60 209 60 196 0 225 2 237 17 10 11 14 45 14 107 0 80 -4 98 -28
148 -53 107 -157 169 -285 167 -37 0 -86 -6 -109 -14z m164 -199 c12 -11 25
-36 29 -53 l7 -33 -112 0 c-104 0 -111 1 -111 20 0 25 62 87 92 93 36 6 71 -4
95 -27z"/>
<path d="M2732 1470 c-24 -11 -57 -30 -74 -42 l-31 -21 7 36 7 37 -115 0 c-72
0 -117 -4 -122 -11 -6 -10 -154 -683 -154 -701 0 -5 49 -8 109 -8 82 0 111 3
121 14 6 8 27 88 46 178 54 251 80 289 204 296 39 2 70 5 70 7 0 1 11 53 25
115 14 62 25 115 25 117 0 11 -82 -1 -118 -17z"/>
<path d="M97 1166 c-21 -99 -48 -229 -61 -288 l-23 -108 106 0 c58 0 111 4
118 8 8 5 123 503 123 533 0 2 -33 5 -73 5 -39 1 -90 8 -112 17 l-40 14 -38
-181z"/>
<path d="M5880 693 c-30 -11 -50 -37 -50 -63 0 -56 67 -72 107 -26 29 34 29
41 -2 71 -25 26 -30 27 -55 18z"/>
<path d="M6065 678 c-2 -7 -24 -112 -50 -233 -25 -121 -48 -228 -51 -237 -5
-16 2 -18 53 -18 l58 0 49 233 c27 127 51 240 54 250 4 15 -3 17 -52 17 -36 0
-58 -4 -61 -12z"/>
<path d="M4970 539 c-14 -6 -36 -20 -49 -32 l-24 -22 7 28 6 27 -57 0 -58 0
-34 -162 c-19 -90 -36 -169 -39 -175 -3 -10 12 -13 55 -13 l58 0 23 107 c23
111 40 143 77 143 46 0 50 -22 26 -133 -11 -56 -21 -105 -21 -109 0 -5 24 -8
54 -8 62 0 56 -9 81 120 10 47 21 93 26 102 11 21 43 31 69 23 26 -8 26 -51 1
-162 l-19 -83 57 0 57 0 22 113 c26 135 27 149 6 188 -31 61 -113 69 -179 17
-26 -20 -28 -20 -37 -4 -8 14 -68 48 -80 45 -2 0 -14 -5 -28 -10z"/>
<path d="M5505 541 c-16 -4 -45 -15 -63 -25 l-33 -17 21 -29 c17 -25 25 -28
40 -20 28 15 86 12 100 -5 18 -22 5 -30 -64 -44 -86 -16 -128 -40 -149 -83
-16 -33 -17 -40 -3 -73 21 -49 72 -71 120 -51 18 8 37 19 40 25 12 19 29 12
23 -9 -5 -18 0 -20 52 -20 l58 0 21 103 c26 122 27 150 6 187 -30 49 -105 76
-169 61z m58 -215 c-11 -58 -85 -77 -91 -24 -3 23 2 29 30 37 56 16 66 14 61
-13z"/>
<path d="M5781 388 c-17 -84 -34 -163 -38 -176 -5 -22 -4 -23 53 -20 l58 3 12
60 c7 33 24 111 37 173 l24 112 -57 0 -57 0 -32 -152z"/>
</g>
</svg>

